<svg width="387" height="422" viewBox="0 0 387 422" fill="none" xmlns="http://www.w3.org/2000/svg">
<path d="M353.035 5.26172L356.862 31.572L308.068 28.2234L353.035 5.26172Z" fill="url(#paint0_linear_1180_12291)"/>
<path d="M381.26 5.74023L354.471 31.0938L349.688 5.74023H381.26Z" fill="url(#paint1_linear_1180_12291)"/>
<path d="M357.342 153.555L358.299 132.985L369.779 123.896L367.388 150.685L357.342 153.555Z" fill="url(#paint2_linear_1180_12291)"/>
<path d="M357.342 153.555L358.299 132.985L369.779 123.896L367.388 150.685L357.342 153.555Z" fill="url(#paint3_linear_1180_12291)"/>
<path d="M387.001 206.177L357.82 176.039L375.52 158.34L385.087 166.95L387.001 206.177Z" fill="url(#paint4_linear_1180_12291)"/>
<path d="M387.001 206.177L357.82 176.039L375.52 158.34L385.087 166.95L387.001 206.177Z" fill="url(#paint5_linear_1180_12291)"/>
<path d="M357.82 176.996L362.604 244.924L385.566 230.095L387.001 205.698L357.82 176.996Z" fill="url(#paint6_linear_1180_12291)"/>
<path d="M357.82 176.996L362.604 244.924L385.566 230.095L387.001 205.698L357.82 176.996Z" fill="url(#paint7_linear_1180_12291)"/>
<path d="M361.646 253.535L362.603 245.403L385.565 229.139L380.303 310.461L361.646 253.535Z" fill="url(#paint8_linear_1180_12291)"/>
<path d="M358.299 287.5L379.825 309.027L362.604 243.969L358.299 287.5Z" fill="url(#paint9_linear_1180_12291)"/>
<path d="M358.299 287.5L379.825 309.027L362.604 243.969L358.299 287.5Z" fill="url(#paint10_linear_1180_12291)"/>
<path d="M296.588 291.327L291.805 311.897L380.303 309.983L357.82 287.021L296.588 291.327Z" fill="url(#paint11_linear_1180_12291)"/>
<path d="M296.588 291.327L291.805 311.897L380.303 309.983L357.82 287.021L296.588 291.327Z" fill="url(#paint12_linear_1180_12291)"/>
<path d="M291.327 311.896L281.76 292.283L296.589 291.326L291.327 311.896Z" fill="url(#paint13_linear_1180_12291)"/>
<path d="M291.327 311.896L281.76 292.283L296.589 291.326L291.327 311.896Z" fill="url(#paint14_linear_1180_12291)"/>
<path d="M221.963 306.634L216.223 289.891L281.759 292.282L290.848 311.896L221.963 306.634Z" fill="url(#paint15_linear_1180_12291)"/>
<path d="M203.785 311.895H282.716L216.223 289.412L203.785 311.895Z" fill="url(#paint16_linear_1180_12291)"/>
<path d="M203.785 311.895H282.716L216.223 289.412L203.785 311.895Z" fill="url(#paint17_linear_1180_12291)"/>
<path d="M281.758 294.675L112.416 285.586L358.297 287.021L281.758 294.675Z" fill="url(#paint18_linear_1180_12291)"/>
<path d="M281.758 294.675L112.416 285.586L358.297 287.021L281.758 294.675Z" fill="url(#paint19_linear_1180_12291)"/>
<path d="M113.373 286.064L124.376 314.767L203.785 311.896L215.266 291.327L113.373 286.064Z" fill="url(#paint20_linear_1180_12291)"/>
<path d="M5.74023 311.418L33.0072 286.064H113.373L124.854 314.767L5.74023 311.418Z" fill="url(#paint21_linear_1180_12291)"/>
<path d="M5.74023 311.418L33.0072 286.064H113.373L124.854 314.767L5.74023 311.418Z" fill="url(#paint22_linear_1180_12291)"/>
<path d="M3.82617 263.581L6.21801 311.897L33.485 285.586L32.0499 261.668L3.82617 263.581Z" fill="url(#paint23_linear_1180_12291)"/>
<path d="M8.13241 216.701L32.0508 262.625L3.82709 264.06L0.478516 216.701H8.13241Z" fill="url(#paint24_linear_1180_12291)"/>
<path d="M8.13241 216.701L32.0508 262.625L3.82709 264.06L0.478516 216.701H8.13241Z" fill="url(#paint25_linear_1180_12291)"/>
<path d="M27.2674 168.863L32.0511 261.667L7.6543 216.7V194.695L27.2674 168.863Z" fill="url(#paint26_linear_1180_12291)"/>
<path d="M27.2674 168.863L32.0511 261.667L7.6543 216.7V194.695L27.2674 168.863Z" fill="url(#paint27_linear_1180_12291)"/>
<path d="M0.478516 195.174V216.7H8.61078V195.174H0.478516Z" fill="url(#paint28_linear_1180_12291)"/>
<path d="M5.74042 111.459L26.7886 169.342L8.13226 194.695H0L5.74042 111.459Z" fill="url(#paint29_linear_1180_12291)"/>
<path d="M5.74042 111.459L26.7886 169.342L8.13226 194.695H0L5.74042 111.459Z" fill="url(#paint30_linear_1180_12291)"/>
<path d="M33.0074 73.668L6.21875 111.459L27.267 171.733L33.0074 73.668Z" fill="url(#paint31_linear_1180_12291)"/>
<path d="M5.26172 5.26172L68.4063 7.17519L28.2234 27.745L5.26172 26.3099V5.26172Z" fill="url(#paint32_linear_1180_12291)"/>
<path d="M4.7832 39.2263V25.832L28.2233 27.2671L31.0935 73.1905L4.7832 39.2263Z" fill="url(#paint33_linear_1180_12291)"/>
<path d="M4.7832 39.2263V25.832L28.2233 27.2671L31.0935 73.1905L4.7832 39.2263Z" fill="url(#paint34_linear_1180_12291)"/>
<path d="M4.7832 120.071V38.748L31.0935 60.753V111.46L4.7832 120.071Z" fill="url(#paint35_linear_1180_12291)"/>
<path d="M4.7832 120.071V38.748L31.0935 60.753V111.46L4.7832 120.071Z" fill="url(#paint36_linear_1180_12291)"/>
<path d="M359.255 132.03L357.82 32.5293L382.695 113.374L359.255 132.03Z" fill="url(#paint37_linear_1180_12291)"/>
<path d="M359.255 132.03L357.82 32.5293L382.695 113.374L359.255 132.03Z" fill="url(#paint38_linear_1180_12291)"/>
<path d="M384.608 166.95L383.173 89.4546L372.649 88.0195L367.387 150.686L384.608 166.95Z" fill="url(#paint39_linear_1180_12291)"/>
<path d="M384.608 166.95L383.173 89.4546L372.649 88.0195L367.387 150.686L384.608 166.95Z" fill="url(#paint40_linear_1180_12291)"/>
<path d="M375.52 159.296L357.82 175.561V153.556L366.909 150.686L375.52 159.296Z" fill="url(#paint41_linear_1180_12291)"/>
<path d="M375.52 159.296L357.82 175.561V153.556L366.909 150.686L375.52 159.296Z" fill="url(#paint42_linear_1180_12291)"/>
<path d="M70.7977 7.17578L180.822 33.0077L29.1797 27.7456L70.7977 7.17578Z" fill="url(#paint43_linear_1180_12291)"/>
<path d="M70.7977 7.17578L180.822 33.0077L29.1797 27.7456L70.7977 7.17578Z" fill="url(#paint44_linear_1180_12291)"/>
<path d="M180.824 33.0077L241.577 0.957031L72.2344 7.17582L180.824 33.0077Z" fill="url(#paint45_linear_1180_12291)"/>
<path d="M180.824 33.0077L241.577 0.957031L72.2344 7.17582L180.824 33.0077Z" fill="url(#paint46_linear_1180_12291)"/>
<path d="M242.533 0.957031L308.548 27.7457L177.953 33.9644L242.533 0.957031Z" fill="url(#paint47_linear_1180_12291)"/>
<path d="M242.533 0.957031L308.548 27.7457L177.953 33.9644L242.533 0.957031Z" fill="url(#paint48_linear_1180_12291)"/>
<path d="M308.547 28.2237L351.6 5.74042L238.705 0L308.547 28.2237Z" fill="url(#paint49_linear_1180_12291)"/>
<path d="M382.215 5.74023H352.557L308.068 27.7452L357.819 32.5289L382.215 5.74023Z" fill="url(#paint50_linear_1180_12291)"/>
<path d="M382.215 5.74023H352.557L308.068 27.7452L357.819 32.5289L382.215 5.74023Z" fill="url(#paint51_linear_1180_12291)"/>
<path d="M374.562 89.4546L358.775 33.0071L382.694 5.26172V89.4546H374.562Z" fill="url(#paint52_linear_1180_12291)"/>
<path d="M222.92 360.211L216.701 421.442L239.184 346.338L222.92 360.211Z" fill="url(#paint53_linear_1180_12291)"/>
<path d="M222.92 360.211L216.701 421.442L239.184 346.338L222.92 360.211Z" fill="url(#paint54_linear_1180_12291)"/>
<path d="M256.406 289.413L239.184 347.774L222.441 360.212L243.49 273.627L256.406 289.413Z" fill="url(#paint55_linear_1180_12291)"/>
<path d="M275.063 202.35L243.49 273.626L281.76 208.09L275.063 202.35Z" fill="url(#paint56_linear_1180_12291)"/>
<path d="M275.063 202.35L243.49 273.626L281.76 208.09L275.063 202.35Z" fill="url(#paint57_linear_1180_12291)"/>
<path d="M255.928 290.37L281.281 209.525L243.969 275.062L255.928 290.37Z" fill="url(#paint58_linear_1180_12291)"/>
<path d="M255.928 290.37L281.281 209.525L243.969 275.062L255.928 290.37Z" fill="url(#paint59_linear_1180_12291)"/>
<path d="M283.673 207.612L303.765 132.986L275.062 201.393L283.673 207.612Z" fill="url(#paint60_linear_1180_12291)"/>
<path d="M303.764 134.422L311.896 141.119L346.817 102.371L329.596 88.02L310.461 83.2363L303.764 134.422Z" fill="url(#paint61_linear_1180_12291)"/>
<path d="M303.764 134.422L311.896 141.119L346.817 102.371L329.596 88.02L310.461 83.2363L303.764 134.422Z" fill="url(#paint62_linear_1180_12291)"/>
<defs>
<linearGradient id="paint0_linear_1180_12291" x1="332.465" y1="5.26172" x2="332.465" y2="31.572" gradientUnits="userSpaceOnUse">
<stop stop-color="#4B9E86"/>
<stop offset="0.510417" stop-color="#3F628B"/>
<stop offset="0.895833" stop-color="#297998"/>
</linearGradient>
<linearGradient id="paint1_linear_1180_12291" x1="365.474" y1="5.74023" x2="365.474" y2="31.0938" gradientUnits="userSpaceOnUse">
<stop stop-color="#4B9E86"/>
<stop offset="0.510417" stop-color="#3F628B"/>
<stop offset="0.895833" stop-color="#297998"/>
</linearGradient>
<linearGradient id="paint2_linear_1180_12291" x1="363.561" y1="123.896" x2="363.561" y2="153.555" gradientUnits="userSpaceOnUse">
<stop stop-color="#4B9E86"/>
<stop offset="0.510417" stop-color="#3F628B"/>
<stop offset="0.895833" stop-color="#297998"/>
</linearGradient>
<linearGradient id="paint3_linear_1180_12291" x1="363.549" y1="165.62" x2="360.266" y2="112.231" gradientUnits="userSpaceOnUse">
<stop stop-color="#6399D9"/>
<stop offset="1" stop-color="#75F6D2"/>
</linearGradient>
<linearGradient id="paint4_linear_1180_12291" x1="372.411" y1="158.34" x2="372.411" y2="206.177" gradientUnits="userSpaceOnUse">
<stop stop-color="#4B9E86"/>
<stop offset="0.510417" stop-color="#3F628B"/>
<stop offset="0.895833" stop-color="#297998"/>
</linearGradient>
<linearGradient id="paint5_linear_1180_12291" x1="372.383" y1="225.637" x2="368.736" y2="139.353" gradientUnits="userSpaceOnUse">
<stop stop-color="#6399D9"/>
<stop offset="1" stop-color="#3CC4F1"/>
</linearGradient>
<linearGradient id="paint6_linear_1180_12291" x1="372.411" y1="176.996" x2="372.411" y2="244.924" gradientUnits="userSpaceOnUse">
<stop stop-color="#4B9E86"/>
<stop offset="0.510417" stop-color="#3F628B"/>
<stop offset="0.895833" stop-color="#297998"/>
</linearGradient>
<linearGradient id="paint7_linear_1180_12291" x1="372.383" y1="272.557" x2="365.042" y2="150.256" gradientUnits="userSpaceOnUse">
<stop stop-color="#6399D9"/>
<stop offset="1" stop-color="#75F6D2"/>
</linearGradient>
<linearGradient id="paint8_linear_1180_12291" x1="373.583" y1="343.543" x2="360.798" y2="197.72" gradientUnits="userSpaceOnUse">
<stop stop-color="#75F6D2"/>
<stop offset="1" stop-color="#3CC4F1"/>
</linearGradient>
<linearGradient id="paint9_linear_1180_12291" x1="369.062" y1="243.969" x2="369.062" y2="309.027" gradientUnits="userSpaceOnUse">
<stop stop-color="#4B9E86"/>
<stop offset="0.510417" stop-color="#3F628B"/>
<stop offset="0.895833" stop-color="#297998"/>
</linearGradient>
<linearGradient id="paint10_linear_1180_12291" x1="369.042" y1="335.492" x2="359.936" y2="218.647" gradientUnits="userSpaceOnUse">
<stop stop-color="#6399D9"/>
<stop offset="1" stop-color="#3CC4F1"/>
</linearGradient>
<linearGradient id="paint11_linear_1180_12291" x1="336.054" y1="287.021" x2="336.054" y2="311.897" gradientUnits="userSpaceOnUse">
<stop stop-color="#4B9E86"/>
<stop offset="0.510417" stop-color="#3F628B"/>
<stop offset="0.895833" stop-color="#297998"/>
</linearGradient>
<linearGradient id="paint12_linear_1180_12291" x1="335.971" y1="322.016" x2="335.646" y2="277.07" gradientUnits="userSpaceOnUse">
<stop stop-color="#6399D9"/>
<stop offset="1" stop-color="#75F6D2"/>
</linearGradient>
<linearGradient id="paint13_linear_1180_12291" x1="289.174" y1="291.326" x2="289.174" y2="311.896" gradientUnits="userSpaceOnUse">
<stop stop-color="#4B9E86"/>
<stop offset="0.510417" stop-color="#3F628B"/>
<stop offset="0.895833" stop-color="#297998"/>
</linearGradient>
<linearGradient id="paint14_linear_1180_12291" x1="289.161" y1="320.264" x2="287.833" y2="283.143" gradientUnits="userSpaceOnUse">
<stop stop-color="#6399D9"/>
<stop offset="1" stop-color="#3CC4F1"/>
</linearGradient>
<linearGradient id="paint15_linear_1180_12291" x1="253.466" y1="320.847" x2="253.164" y2="281.088" gradientUnits="userSpaceOnUse">
<stop stop-color="#75F6D2"/>
<stop offset="1" stop-color="#3CC4F1"/>
</linearGradient>
<linearGradient id="paint16_linear_1180_12291" x1="243.251" y1="289.412" x2="243.251" y2="311.895" gradientUnits="userSpaceOnUse">
<stop stop-color="#4B9E86"/>
<stop offset="0.510417" stop-color="#3F628B"/>
<stop offset="0.895833" stop-color="#297998"/>
</linearGradient>
<linearGradient id="paint17_linear_1180_12291" x1="243.177" y1="321.042" x2="242.879" y2="280.418" gradientUnits="userSpaceOnUse">
<stop stop-color="#6399D9"/>
<stop offset="1" stop-color="#75F6D2"/>
</linearGradient>
<linearGradient id="paint18_linear_1180_12291" x1="235.357" y1="285.586" x2="235.357" y2="294.675" gradientUnits="userSpaceOnUse">
<stop stop-color="#4B9E86"/>
<stop offset="0.510417" stop-color="#3F628B"/>
<stop offset="0.895833" stop-color="#297998"/>
</linearGradient>
<linearGradient id="paint19_linear_1180_12291" x1="235.128" y1="298.372" x2="235.112" y2="281.949" gradientUnits="userSpaceOnUse">
<stop stop-color="#6399D9"/>
<stop offset="1" stop-color="#3CC4F1"/>
</linearGradient>
<linearGradient id="paint20_linear_1180_12291" x1="164.224" y1="326.442" x2="163.848" y2="274.583" gradientUnits="userSpaceOnUse">
<stop stop-color="#75F6D2"/>
<stop offset="1" stop-color="#3CC4F1"/>
</linearGradient>
<linearGradient id="paint21_linear_1180_12291" x1="65.2971" y1="286.064" x2="65.2971" y2="314.767" gradientUnits="userSpaceOnUse">
<stop stop-color="#4B9E86"/>
<stop offset="0.510417" stop-color="#3F628B"/>
<stop offset="0.895833" stop-color="#297998"/>
</linearGradient>
<linearGradient id="paint22_linear_1180_12291" x1="65.1862" y1="326.442" x2="64.8639" y2="274.582" gradientUnits="userSpaceOnUse">
<stop stop-color="#6399D9"/>
<stop offset="1" stop-color="#75F6D2"/>
</linearGradient>
<linearGradient id="paint23_linear_1180_12291" x1="18.628" y1="332.329" x2="14.6718" y2="241.743" gradientUnits="userSpaceOnUse">
<stop stop-color="#75F6D2"/>
<stop offset="1" stop-color="#3CC4F1"/>
</linearGradient>
<linearGradient id="paint24_linear_1180_12291" x1="16.2647" y1="216.701" x2="16.2647" y2="264.06" gradientUnits="userSpaceOnUse">
<stop stop-color="#4B9E86"/>
<stop offset="0.510417" stop-color="#3F628B"/>
<stop offset="0.895833" stop-color="#297998"/>
</linearGradient>
<linearGradient id="paint25_linear_1180_12291" x1="16.2353" y1="283.325" x2="12.9301" y2="197.879" gradientUnits="userSpaceOnUse">
<stop stop-color="#6399D9"/>
<stop offset="1" stop-color="#3CC4F1"/>
</linearGradient>
<linearGradient id="paint26_linear_1180_12291" x1="19.8527" y1="168.863" x2="19.8527" y2="261.667" gradientUnits="userSpaceOnUse">
<stop stop-color="#4B9E86"/>
<stop offset="0.510417" stop-color="#3F628B"/>
<stop offset="0.895833" stop-color="#297998"/>
</linearGradient>
<linearGradient id="paint27_linear_1180_12291" x1="19.83" y1="299.419" x2="3.53739" y2="133.328" gradientUnits="userSpaceOnUse">
<stop stop-color="#6399D9"/>
<stop offset="1" stop-color="#75F6D2"/>
</linearGradient>
<linearGradient id="paint28_linear_1180_12291" x1="4.53707" y1="225.457" x2="1.89422" y2="186.741" gradientUnits="userSpaceOnUse">
<stop stop-color="#75F6D2"/>
<stop offset="1" stop-color="#3CC4F1"/>
</linearGradient>
<linearGradient id="paint29_linear_1180_12291" x1="13.3943" y1="111.459" x2="13.3943" y2="194.695" gradientUnits="userSpaceOnUse">
<stop stop-color="#4B9E86"/>
<stop offset="0.510417" stop-color="#3F628B"/>
<stop offset="0.895833" stop-color="#297998"/>
</linearGradient>
<linearGradient id="paint30_linear_1180_12291" x1="13.3694" y1="228.555" x2="1.39516" y2="79.1129" gradientUnits="userSpaceOnUse">
<stop stop-color="#6399D9"/>
<stop offset="1" stop-color="#3CC4F1"/>
</linearGradient>
<linearGradient id="paint31_linear_1180_12291" x1="19.5881" y1="211.626" x2="3.00821" y2="35.9938" gradientUnits="userSpaceOnUse">
<stop stop-color="#75F6D2"/>
<stop offset="1" stop-color="#3CC4F1"/>
</linearGradient>
<linearGradient id="paint32_linear_1180_12291" x1="36.7752" y1="36.8912" x2="36.4022" y2="-3.73118" gradientUnits="userSpaceOnUse">
<stop stop-color="#75F6D2"/>
<stop offset="1" stop-color="#3CC4F1"/>
</linearGradient>
<linearGradient id="paint33_linear_1180_12291" x1="17.9383" y1="25.832" x2="17.9383" y2="73.1905" gradientUnits="userSpaceOnUse">
<stop stop-color="#4B9E86"/>
<stop offset="0.510417" stop-color="#3F628B"/>
<stop offset="0.895833" stop-color="#297998"/>
</linearGradient>
<linearGradient id="paint34_linear_1180_12291" x1="17.9138" y1="92.4557" x2="13.9502" y2="7.0663" gradientUnits="userSpaceOnUse">
<stop stop-color="#6399D9"/>
<stop offset="1" stop-color="#75F6D2"/>
</linearGradient>
<linearGradient id="paint35_linear_1180_12291" x1="17.9383" y1="38.748" x2="17.9383" y2="120.071" gradientUnits="userSpaceOnUse">
<stop stop-color="#4B9E86"/>
<stop offset="0.510417" stop-color="#3F628B"/>
<stop offset="0.895833" stop-color="#297998"/>
</linearGradient>
<linearGradient id="paint36_linear_1180_12291" x1="17.9138" y1="153.152" x2="6.27525" y2="7.13581" gradientUnits="userSpaceOnUse">
<stop stop-color="#6399D9"/>
<stop offset="1" stop-color="#3CC4F1"/>
</linearGradient>
<linearGradient id="paint37_linear_1180_12291" x1="370.258" y1="32.5293" x2="370.258" y2="132.03" gradientUnits="userSpaceOnUse">
<stop stop-color="#4B9E86"/>
<stop offset="0.510417" stop-color="#3F628B"/>
<stop offset="0.895833" stop-color="#297998"/>
</linearGradient>
<linearGradient id="paint38_linear_1180_12291" x1="370.235" y1="172.506" x2="351.884" y2="-5.3914" gradientUnits="userSpaceOnUse">
<stop stop-color="#6399D9"/>
<stop offset="1" stop-color="#3CC4F1"/>
</linearGradient>
<linearGradient id="paint39_linear_1180_12291" x1="375.997" y1="88.0195" x2="375.997" y2="166.95" gradientUnits="userSpaceOnUse">
<stop stop-color="#4B9E86"/>
<stop offset="0.510417" stop-color="#3F628B"/>
<stop offset="0.895833" stop-color="#297998"/>
</linearGradient>
<linearGradient id="paint40_linear_1180_12291" x1="375.981" y1="199.059" x2="359.357" y2="58.4016" gradientUnits="userSpaceOnUse">
<stop stop-color="#6399D9"/>
<stop offset="1" stop-color="#75F6D2"/>
</linearGradient>
<linearGradient id="paint41_linear_1180_12291" x1="366.67" y1="150.686" x2="366.67" y2="175.561" gradientUnits="userSpaceOnUse">
<stop stop-color="#4B9E86"/>
<stop offset="0.510417" stop-color="#3F628B"/>
<stop offset="0.895833" stop-color="#297998"/>
</linearGradient>
<linearGradient id="paint42_linear_1180_12291" x1="366.654" y1="185.68" x2="365.027" y2="140.791" gradientUnits="userSpaceOnUse">
<stop stop-color="#6399D9"/>
<stop offset="1" stop-color="#75F6D2"/>
</linearGradient>
<linearGradient id="paint43_linear_1180_12291" x1="105.001" y1="7.17578" x2="105.001" y2="33.0077" gradientUnits="userSpaceOnUse">
<stop stop-color="#4B9E86"/>
<stop offset="0.510417" stop-color="#3F628B"/>
<stop offset="0.895833" stop-color="#297998"/>
</linearGradient>
<linearGradient id="paint44_linear_1180_12291" x1="104.86" y1="43.516" x2="104.655" y2="-3.15953" gradientUnits="userSpaceOnUse">
<stop stop-color="#6399D9"/>
<stop offset="1" stop-color="#3CC4F1"/>
</linearGradient>
<linearGradient id="paint45_linear_1180_12291" x1="156.906" y1="0.957031" x2="156.906" y2="33.0077" gradientUnits="userSpaceOnUse">
<stop stop-color="#4B9E86"/>
<stop offset="0.510417" stop-color="#3F628B"/>
<stop offset="0.895833" stop-color="#297998"/>
</linearGradient>
<linearGradient id="paint46_linear_1180_12291" x1="156.748" y1="46.0458" x2="156.465" y2="-11.8661" gradientUnits="userSpaceOnUse">
<stop stop-color="#6399D9"/>
<stop offset="1" stop-color="#75F6D2"/>
</linearGradient>
<linearGradient id="paint47_linear_1180_12291" x1="243.25" y1="0.957031" x2="243.25" y2="33.9644" gradientUnits="userSpaceOnUse">
<stop stop-color="#4B9E86"/>
<stop offset="0.510417" stop-color="#3F628B"/>
<stop offset="0.895833" stop-color="#297998"/>
</linearGradient>
<linearGradient id="paint48_linear_1180_12291" x1="243.129" y1="47.3917" x2="242.74" y2="-12.2478" gradientUnits="userSpaceOnUse">
<stop stop-color="#6399D9"/>
<stop offset="1" stop-color="#3CC4F1"/>
</linearGradient>
<linearGradient id="paint49_linear_1180_12291" x1="295.047" y1="39.705" x2="294.719" y2="-11.2911" gradientUnits="userSpaceOnUse">
<stop stop-color="#75F6D2"/>
<stop offset="1" stop-color="#3CC4F1"/>
</linearGradient>
<linearGradient id="paint50_linear_1180_12291" x1="345.142" y1="5.74023" x2="345.142" y2="32.5289" gradientUnits="userSpaceOnUse">
<stop stop-color="#4B9E86"/>
<stop offset="0.510417" stop-color="#3F628B"/>
<stop offset="0.895833" stop-color="#297998"/>
</linearGradient>
<linearGradient id="paint51_linear_1180_12291" x1="345.073" y1="43.4264" x2="344.622" y2="-4.97459" gradientUnits="userSpaceOnUse">
<stop stop-color="#6399D9"/>
<stop offset="1" stop-color="#75F6D2"/>
</linearGradient>
<linearGradient id="paint52_linear_1180_12291" x1="370.712" y1="123.704" x2="357.016" y2="-27.1834" gradientUnits="userSpaceOnUse">
<stop stop-color="#75F6D2"/>
<stop offset="1" stop-color="#3CC4F1"/>
</linearGradient>
<linearGradient id="paint53_linear_1180_12291" x1="227.943" y1="346.338" x2="227.943" y2="421.442" gradientUnits="userSpaceOnUse">
<stop stop-color="#4B9E86"/>
<stop offset="0.510417" stop-color="#3F628B"/>
<stop offset="0.895833" stop-color="#297998"/>
</linearGradient>
<linearGradient id="paint54_linear_1180_12291" x1="227.922" y1="451.994" x2="216.318" y2="317.286" gradientUnits="userSpaceOnUse">
<stop stop-color="#6399D9"/>
<stop offset="1" stop-color="#75F6D2"/>
</linearGradient>
<linearGradient id="paint55_linear_1180_12291" x1="239.392" y1="395.434" x2="229.151" y2="239.655" gradientUnits="userSpaceOnUse">
<stop stop-color="#75F6D2"/>
<stop offset="1" stop-color="#3CC4F1"/>
</linearGradient>
<linearGradient id="paint56_linear_1180_12291" x1="262.625" y1="202.35" x2="262.625" y2="273.626" gradientUnits="userSpaceOnUse">
<stop stop-color="#4B9E86"/>
<stop offset="0.510417" stop-color="#3F628B"/>
<stop offset="0.895833" stop-color="#297998"/>
</linearGradient>
<linearGradient id="paint57_linear_1180_12291" x1="262.589" y1="302.622" x2="256.418" y2="174.126" gradientUnits="userSpaceOnUse">
<stop stop-color="#6399D9"/>
<stop offset="1" stop-color="#3CC4F1"/>
</linearGradient>
<linearGradient id="paint58_linear_1180_12291" x1="262.625" y1="209.525" x2="262.625" y2="290.37" gradientUnits="userSpaceOnUse">
<stop stop-color="#4B9E86"/>
<stop offset="0.510417" stop-color="#3F628B"/>
<stop offset="0.895833" stop-color="#297998"/>
</linearGradient>
<linearGradient id="paint59_linear_1180_12291" x1="262.59" y1="323.257" x2="254.454" y2="177.632" gradientUnits="userSpaceOnUse">
<stop stop-color="#6399D9"/>
<stop offset="1" stop-color="#75F6D2"/>
</linearGradient>
<linearGradient id="paint60_linear_1180_12291" x1="289.387" y1="237.969" x2="280.386" y2="103.73" gradientUnits="userSpaceOnUse">
<stop stop-color="#75F6D2"/>
<stop offset="1" stop-color="#3CC4F1"/>
</linearGradient>
<linearGradient id="paint61_linear_1180_12291" x1="325.29" y1="83.2363" x2="325.29" y2="141.119" gradientUnits="userSpaceOnUse">
<stop stop-color="#4B9E86"/>
<stop offset="0.510417" stop-color="#3F628B"/>
<stop offset="0.895833" stop-color="#297998"/>
</linearGradient>
<linearGradient id="paint62_linear_1180_12291" x1="325.25" y1="164.665" x2="321.628" y2="60.2011" gradientUnits="userSpaceOnUse">
<stop stop-color="#6399D9"/>
<stop offset="1" stop-color="#3CC4F1"/>
</linearGradient>
</defs>
</svg>
