<svg width="46" height="46" viewBox="0 0 46 46" fill="none" xmlns="http://www.w3.org/2000/svg">
<path d="M0 0V46H46V0H0ZM11.281 9.04333C13.103 9.06384 14.8978 10.3208 14.9758 12.4967C15.0148 14.4316 13.3286 15.9053 11.2333 15.9501H11.1828C9.3789 15.9293 7.61729 14.6408 7.53564 12.4967C7.56137 10.5834 9.16968 9.08872 11.281 9.04333ZM30.8276 18.185C32.8307 18.1974 34.7212 18.7916 36.2744 20.3749C37.8885 22.1751 38.4067 24.6572 38.4644 27.1806V38.6581H31.8496V27.9611C31.8349 25.9562 31.1481 23.5191 28.4945 23.438C26.9393 23.4546 25.8426 24.3583 25.0917 25.8694C24.8867 26.3558 24.8571 26.9149 24.8474 27.4725V38.6581H18.2355C18.2608 33.0661 18.2955 27.4746 18.2832 21.8826C18.2832 20.2941 18.2679 19.2246 18.2355 18.6735H24.8474V21.4923C25.4086 20.6941 26.0311 19.9371 26.866 19.3276C27.9986 18.5194 29.3591 18.2095 30.8276 18.185ZM7.92592 18.6735H14.5378V38.6581H7.92592V18.6735Z" fill="white"/>
</svg>
