<svg width="41" height="41" viewBox="0 0 41 41" fill="none" xmlns="http://www.w3.org/2000/svg">
<path d="M25.585 40.7266C25.585 40.7001 25.5916 40.6537 25.605 40.5875C25.6183 40.5213 25.625 40.4618 25.625 40.4088C25.625 38.1579 25.3647 35.8937 24.8442 33.6163C24.3237 31.3389 23.5964 29.6574 22.6621 28.5716C26.1322 28.2804 28.7747 27.2674 30.5898 25.5329C32.4049 23.7984 33.3125 21.5541 33.3125 18.8C33.3125 16.3903 32.4583 14.5366 30.75 13.239V9.62428C30.75 9.33298 30.6032 9.04831 30.3096 8.77026C30.016 8.4922 29.7357 8.35318 29.4688 8.35318C29.1484 8.35318 27.5602 9.28002 24.7041 11.1337C23.4495 10.9748 22.0482 10.8954 20.5 10.8954C18.9785 10.8954 17.5771 10.9748 16.2959 11.1337C13.4398 9.28002 11.8516 8.35318 11.5312 8.35318C11.2643 8.35318 10.984 8.49882 10.6904 8.79012C10.3968 9.08141 10.25 9.35947 10.25 9.62428C10.25 9.86261 10.2233 10.4452 10.1699 11.372C10.1165 12.2989 10.0765 12.9742 10.0498 13.3979C8.47493 14.669 7.6875 16.4697 7.6875 18.8C7.6875 21.5541 8.59505 23.7984 10.4102 25.5329C12.2253 27.2674 14.8678 28.2804 18.3379 28.5716C18.2044 28.757 18.0176 29.0218 17.7773 29.3661C16.6296 30.6107 14.9746 31.233 12.8125 31.233C12.3854 31.233 11.9583 31.0543 11.5312 30.6968C11.1042 30.3393 10.6838 29.9156 10.27 29.4257C9.85628 28.9358 9.42253 28.4392 8.96875 27.9361C8.51497 27.433 7.95443 27.0093 7.28711 26.665C6.61979 26.3207 5.89909 26.1486 5.125 26.1486C5.125 26.3605 5.25179 26.6253 5.50537 26.943C5.75895 27.2608 6.11263 27.6978 6.56641 28.2539C7.02018 28.81 7.39388 29.3793 7.6875 29.9619C8.38151 31.286 9.10221 32.2525 9.84961 32.8616C10.597 33.4707 11.5846 33.7752 12.8125 33.7752C14.0938 33.7752 15.2549 33.5899 16.2959 33.2191C15.682 35.5495 15.375 37.946 15.375 40.4088V40.5677L15.415 40.7266C10.9307 39.5879 7.2404 37.1979 4.34424 33.5568C1.44808 29.9156 0 25.7514 0 21.0642C0 18.2837 0.540527 15.6422 1.62158 13.1397C2.70264 10.6372 4.15739 8.47896 5.98584 6.66499C7.81429 4.85102 9.99642 3.40779 12.5322 2.3353C15.068 1.26281 17.724 0.726562 20.5 0.726562C23.276 0.726562 25.932 1.26281 28.4678 2.3353C31.0036 3.40779 33.1857 4.85102 35.0142 6.66499C36.8426 8.47896 38.2974 10.6372 39.3784 13.1397C40.4595 15.6422 41 18.2837 41 21.0642C41 25.7514 39.5519 29.9156 36.6558 33.5568C33.7596 37.1979 30.0693 39.5879 25.585 40.7266Z" fill="white"/>
</svg>
