<svg width="40" height="41" viewBox="0 0 40 41" fill="none" xmlns="http://www.w3.org/2000/svg">
<path d="M20 0.726562C8.95417 0.726562 0 9.68073 0 20.7266C0 31.7724 8.95417 40.7266 20 40.7266C31.0458 40.7266 40 31.7724 40 20.7266C40 9.68073 31.0458 0.726562 20 0.726562ZM15.1042 29.0161H11.0542V15.9828H15.1042V29.0161ZM13.0542 14.3828C11.775 14.3828 10.9479 13.4766 10.9479 12.3557C10.9479 11.212 11.8 10.3328 13.1062 10.3328C14.4125 10.3328 15.2125 11.212 15.2375 12.3557C15.2375 13.4766 14.4125 14.3828 13.0542 14.3828ZM29.8958 29.0161H25.8458V21.7932C25.8458 20.112 25.2583 18.9703 23.7938 18.9703C22.675 18.9703 22.0104 19.7432 21.7167 20.487C21.6083 20.7516 21.5812 21.1266 21.5812 21.4995V29.0141H17.5292V20.1391C17.5292 18.512 17.4771 17.1516 17.4229 15.9807H20.9417L21.1271 17.7911H21.2083C21.7417 16.9411 23.0479 15.687 25.2333 15.687C27.8979 15.687 29.8958 17.4724 29.8958 21.3099V29.0161Z" fill="white"/>
</svg>
