<svg width="40" height="41" viewBox="0 0 40 41" fill="none" xmlns="http://www.w3.org/2000/svg">
<path d="M20 0.726562C8.95536 0.726562 0 9.68192 0 20.7266C0 31.7712 8.95536 40.7266 20 40.7266C31.0446 40.7266 40 31.7712 40 20.7266C40 9.68192 31.0446 0.726562 20 0.726562ZM31.4286 12.0525L29.6071 13.798C29.4464 13.9185 29.3705 14.115 29.4018 14.3069V27.1507C29.3705 27.3471 29.4464 27.5435 29.6071 27.6596L31.3929 29.4051V29.7935H22.4286V29.423L24.2723 27.6328C24.4554 27.4498 24.4554 27.3962 24.4554 27.1239V16.731L19.3214 29.7489H18.6295L12.6562 16.731V25.4587C12.6027 25.8248 12.7321 26.1953 12.9911 26.4587L15.3929 29.365V29.7533H8.57143V29.365L10.9732 26.4587C11.0998 26.328 11.1939 26.1695 11.2482 25.9958C11.3025 25.8222 11.3153 25.6382 11.2857 25.4587V15.3694C11.317 15.0882 11.2098 14.8158 10.9955 14.6239L8.86161 12.0525V11.6641H15.4911L20.6071 22.8917L25.1116 11.673H31.4286V12.0525Z" fill="white"/>
</svg>
