<svg width="40" height="41" viewBox="0 0 40 41" fill="none" xmlns="http://www.w3.org/2000/svg">
<path d="M20 0.726562C8.95536 0.726562 0 9.68192 0 20.7266C0 31.7712 8.95536 40.7266 20 40.7266C31.0446 40.7266 40 31.7712 40 20.7266C40 9.68192 31.0446 0.726562 20 0.726562ZM29.6116 15.8025C29.625 16.0123 29.625 16.231 29.625 16.4453C29.625 22.9989 24.6339 30.548 15.5134 30.548C12.7009 30.548 10.0938 29.731 7.89732 28.3248C8.29911 28.3694 8.68304 28.3873 9.09375 28.3873C11.4152 28.3873 13.5491 27.6016 15.25 26.2712C13.0714 26.2266 11.2411 24.798 10.6161 22.8337C11.3795 22.9453 12.067 22.9453 12.8527 22.7444C11.7309 22.5165 10.7227 21.9073 9.99918 21.0202C9.2757 20.1332 8.88164 19.023 8.88393 17.8783V17.8158C9.54018 18.1864 10.3125 18.4141 11.1205 18.4453C10.4413 17.9926 9.88419 17.3793 9.49871 16.6597C9.11323 15.9402 8.91127 15.1366 8.91072 14.3203C8.91072 13.3962 9.15179 12.5525 9.58482 11.8203C10.8299 13.3531 12.3836 14.6067 14.1449 15.4996C15.9062 16.3926 17.8358 16.9049 19.808 17.0033C19.1071 13.6328 21.625 10.9051 24.6518 10.9051C26.0804 10.9051 27.3661 11.5033 28.2723 12.4676C29.3929 12.2578 30.4643 11.8382 31.4196 11.2757C31.0491 12.423 30.2723 13.3917 29.2411 14.0033C30.2411 13.8962 31.2054 13.6194 32.0982 13.231C31.4241 14.2221 30.5804 15.1016 29.6116 15.8025Z" fill="white"/>
</svg>
